<?xml version="1.0" encoding="UTF-8"?>
<svg width="243px" height="57px" viewBox="0 0 243 57" version="1.1" xmlns="http://www.w3.org/2000/svg" xmlns:xlink="http://www.w3.org/1999/xlink">
    <!-- Generator: Sketch 43.1 (39012) - http://www.bohemiancoding.com/sketch -->
    <title>Page 1</title>
    <desc>Created with Sketch.</desc>
    <defs>
        <polygon id="path-1" points="0.510884902 0.00106542056 133.161235 0.00106542056 133.161235 56.4671832 0.510884902 56.4671832 0.510884902 0.00106542056"></polygon>
    </defs>
    <g id="Symbols" stroke="none" stroke-width="1" fill="none" fill-rule="evenodd">
        <g id="Header" transform="translate(-233.000000, -24.000000)">
            <g id="Page-1" transform="translate(233.000000, 24.000000)">
                <g id="Group-3" transform="translate(109.536105, 0.531645)">
                    <mask id="mask-2" fill="white">
                        <use xlink:href="#path-1"></use>
                    </mask>
                    <g id="Clip-2"></g>
                    <path d="M112.576423,46.4607533 C105.652784,49.3427159 97.4258783,51.4879402 88.4449812,52.8058654 C96.1991803,50.1183421 102.551211,46.0676131 106.639673,41.1831925 L103.858732,41.1831925 C98.0921344,47.2145383 88.3843641,51.7329869 76.8431934,53.4680243 C81.3878783,50.8092673 85.1094473,46.4863234 87.4352284,41.1831925 L85.1009396,41.1831925 C81.5362306,48.6331458 74.9619374,53.7743327 67.3688521,54.2164822 L67.3688521,41.1831925 L65.2419374,41.1831925 L65.2419374,54.2164822 C57.6477886,53.7748654 51.0729637,48.6336785 47.5071912,41.1831925 L45.1734341,41.1831925 C47.4992153,46.4863234 51.2207842,50.8092673 55.7660009,53.4680243 C44.2248302,51.7329869 34.51706,47.2145383 28.7499309,41.1831925 L25.9732438,41.1831925 C29.9112263,45.887557 35.9463466,49.820557 43.3150425,52.5048841 C35.0806923,51.1715103 27.5242963,49.1360243 21.0972919,46.4607533 C9.19348228,41.506015 2.63779956,35.033585 2.63779956,28.2351364 C2.63779956,21.4366879 9.19348228,14.9637252 21.0978236,10.0084542 C27.9773291,7.14407103 36.1436179,5.00630467 45.0585807,3.68571589 C36.8970775,6.36631402 30.2148433,10.5411645 25.9711168,15.6130991 L28.7499309,15.6130991 C34.51706,9.58175327 44.2248302,5.06277196 55.7660009,3.32773458 C51.2207842,5.98649159 47.4992153,10.3099682 45.1734341,15.6130991 L47.5071912,15.6130991 C51.0729637,8.16208037 57.6477886,3.02089346 65.2419374,2.57980935 L65.2419374,15.6130991 L67.3688521,15.6130991 L67.3688521,2.57980935 C74.9619374,3.02142617 81.5362306,8.16261308 85.1009396,15.6130991 L87.4352284,15.6130991 C85.1094473,10.3099682 81.3878783,5.98649159 76.8431934,3.32773458 C88.3843641,5.06277196 98.0921344,9.58175327 103.858732,15.6130991 L106.633824,15.6130991 C102.248657,10.3754916 95.2638696,6.09463178 86.7338783,3.42788411 C96.3794363,4.71810841 105.216767,6.94430467 112.576423,10.0084542 C124.479169,14.9637252 131.03432,21.4366879 131.03432,28.2351364 C131.03432,35.033585 124.479169,41.506015 112.576423,46.4607533 M113.391563,8.04062243 C100.940073,2.85628598 84.406502,0.000958878505 66.8371234,0.000958878505 C49.2677449,0.000958878505 32.7341737,2.85628598 20.2816201,8.04062243 C7.53236193,13.3485477 0.510884902,20.5204262 0.510884902,28.2351364 C0.510884902,35.9503794 7.53236193,43.1211925 20.2816201,48.428585 C32.7347055,53.6123888 49.2682766,56.4671832 66.8371234,56.4671832 C84.4059702,56.4671832 100.93901,53.6123888 113.391563,48.428585 C126.14029,43.1217252 133.161235,35.9503794 133.161235,28.2351364 C133.161235,20.5204262 126.14029,13.3485477 113.391563,8.04062243" id="Fill-1" fill="#FFFFFF" mask="url(#mask-2)"></path>
                </g>
                <polygon id="Fill-4" fill="#FFFFFF" points="137.348279 38.0356738 133.188034 22.6936178 133.136988 22.6936178 128.925697 38.0356738 126.398923 38.0356738 121.728218 19.7786271 124.203947 19.7786271 127.777163 34.9672626 127.828209 34.9672626 131.911885 19.7786271 134.540752 19.7786271 138.573382 34.9672626 138.624428 34.9672626 142.32526 19.7786271 144.749942 19.7786271 139.875054 38.0356738"></polygon>
                <path d="M152.891718,31.6301523 C153.129933,32.5251056 153.50427,33.3305636 154.014729,34.0470589 C154.525189,34.7630215 155.179747,35.3383486 155.979998,35.7725075 C156.779718,36.2071991 157.732576,36.4245449 158.838572,36.4245449 C159.944567,36.4245449 160.896893,36.2071991 161.697145,35.7725075 C162.496333,35.3383486 163.151955,34.7630215 163.662414,34.0470589 C164.172874,33.3305636 164.546679,32.5251056 164.785425,31.6301523 C165.023108,30.7351991 165.142747,29.8274607 165.142747,28.9074701 C165.142747,27.986414 165.023108,27.0792084 164.785425,26.1837224 C164.546679,25.2887692 164.172874,24.4833112 163.662414,23.7673486 C163.151955,23.051386 162.496333,22.4760589 161.697145,22.0413673 C160.896893,21.6072084 159.944567,21.3893299 158.838572,21.3893299 C157.732576,21.3893299 156.779718,21.6072084 155.979998,22.0413673 C155.179747,22.4760589 154.525189,23.051386 154.014729,23.7673486 C153.50427,24.4833112 153.129933,25.2887692 152.891718,26.1837224 C152.652972,27.0792084 152.534397,27.986414 152.534397,28.9074701 C152.534397,29.8274607 152.652972,30.7351991 152.891718,31.6301523 M150.658458,25.314872 C151.024287,24.163685 151.573031,23.145143 152.30469,22.2587131 C153.035817,21.3728159 153.946136,20.6648439 155.035648,20.1363953 C156.124629,19.6090121 157.391738,19.3442551 158.838572,19.3442551 C160.284342,19.3442551 161.552515,19.6090121 162.641495,20.1363953 C163.729944,20.6648439 164.640795,21.3728159 165.372454,22.2587131 C166.103581,23.145143 166.652856,24.163685 167.018154,25.314872 C167.383983,26.4655262 167.56743,27.6630589 167.56743,28.9074701 C167.56743,30.1518813 167.383983,31.349414 167.018154,32.5000682 C166.652856,33.6507224 166.103581,34.6692645 165.372454,35.5556944 C164.640795,36.4421243 163.729944,37.1453019 162.641495,37.6646944 C161.552515,38.1851523 160.284342,38.445115 158.838572,38.445115 C157.391738,38.445115 156.124629,38.1851523 155.035648,37.6646944 C153.946136,37.1453019 153.035817,36.4421243 152.30469,35.5556944 C151.573031,34.6692645 151.024287,33.6507224 150.658458,32.5000682 C150.292097,31.349414 150.109714,30.1518813 150.109714,28.9074701 C150.109714,27.6630589 150.292097,26.4655262 150.658458,25.314872" id="Fill-6" fill="#FFFFFF"></path>
                <path d="M183.698216,28.0634972 C184.208144,27.9782636 184.654796,27.8115252 185.038172,27.5648804 C185.419954,27.3177028 185.726229,26.9858243 185.957,26.567114 C186.186706,26.1500019 186.301028,25.6087682 186.301028,24.9439458 C186.301028,24.0234224 186.04633,23.2733664 185.535339,22.6937776 C185.025411,22.1141888 184.199636,21.8238617 183.05961,21.8238617 L177.036188,21.8238617 L177.036188,28.1913477 L182.089737,28.1913477 C182.651242,28.1913477 183.187225,28.1487308 183.698216,28.0634972 L183.698216,28.0634972 Z M183.187225,19.7782542 C184.922787,19.7782542 186.279759,20.2049551 187.25814,21.0572916 C188.23652,21.909628 188.725711,23.077329 188.725711,24.5603944 C188.725711,25.6684318 188.474203,26.6400953 187.972783,27.475385 C187.471363,28.3106748 186.666326,28.8812075 185.561393,29.1880486 L185.561393,29.2391888 C186.087805,29.3420019 186.517973,29.5130019 186.850304,29.7511234 C187.181571,29.9897776 187.445308,30.2753103 187.641516,30.6071888 C187.83666,30.9401327 187.981291,31.3108991 188.074343,31.7194879 C188.167927,32.1291421 188.240774,32.5553103 188.29182,32.9985252 C188.325851,33.4417402 188.351905,33.8929458 188.368389,34.3537402 C188.384873,34.8140019 188.427943,35.2657402 188.496004,35.7089551 C188.563533,36.1521701 188.662435,36.5746093 188.79005,36.9746748 C188.916601,37.3752729 189.109087,37.7289925 189.363253,38.0358336 L186.657818,38.0358336 C186.487665,37.8483196 186.373343,37.5931514 186.314321,37.2681981 C186.254236,36.944843 186.21542,36.5826 186.198936,36.1820019 C186.182453,35.7814037 186.164905,35.3509738 186.14789,34.8907121 C186.130343,34.4299178 186.079829,33.9787121 185.994221,33.5349645 C185.926691,33.0917495 185.841614,32.6703757 185.740054,32.2697776 C185.636899,31.8697121 185.475253,31.5197215 185.255118,31.2214037 C185.033919,30.923086 184.744126,30.6844318 184.386805,30.5054411 C184.029483,30.3264505 183.553054,30.2369551 182.957518,30.2369551 L177.036188,30.2369551 L177.036188,38.0358336 L174.612037,38.0358336 L174.612037,19.7782542 L183.187225,19.7782542 Z" id="Fill-8" fill="#FFFFFF"></path>
                <polygon id="Fill-10" fill="#FFFFFF" points="198.603262 19.778414 198.603262 35.990386 208.251479 35.990386 208.251479 38.0354607 196.178047 38.0354607 196.178047 19.778414"></polygon>
                <path d="M220.909918,35.9901729 C221.182163,35.9901729 221.522469,35.9688645 221.930837,35.9262477 C222.339736,35.8836308 222.773095,35.7813505 223.23304,35.6194065 C223.691922,35.4574626 224.147082,35.2230701 224.598519,34.9156963 C225.048362,34.6088551 225.453539,34.191743 225.810861,33.6632944 C226.168182,33.1348458 226.461696,32.4737523 226.691403,31.6810794 C226.92111,30.8889393 227.035963,29.9300607 227.035963,28.8049766 C227.035963,27.713986 226.929086,26.7380607 226.716395,25.8772009 C226.503703,25.0163411 226.155421,24.2833318 225.670484,23.6781729 C225.185548,23.0735467 224.560235,22.6127523 223.794014,22.2973879 C223.028325,21.9820234 222.084506,21.8238084 220.960963,21.8238084 L216.877287,21.8238084 L216.877287,35.9901729 L220.909918,35.9901729 Z M220.706265,19.7782009 C223.513261,19.7782009 225.674738,20.4941636 227.189101,21.9266215 C228.702933,23.3585467 229.460114,25.540528 229.460114,28.4725654 C229.460114,30.0073037 229.289961,31.3662477 228.950187,32.5509953 C228.609349,33.7362757 228.081874,34.7329766 227.367762,35.5421636 C226.653119,36.3529486 225.742268,36.9708925 224.636272,37.396528 C223.530276,37.8226963 222.220629,38.0357804 220.706265,38.0357804 L214.453136,38.0357804 L214.453136,19.7782009 L220.706265,19.7782009 Z" id="Fill-12" fill="#FFFFFF"></path>
                <path d="M17.1975939,34.689614 C14.8356551,34.689614 14.048165,31.8246981 14.048165,29.8733804 C14.048165,27.9209972 14.8356551,24.8920065 17.4459112,24.8920065 C19.7663751,24.8920065 20.59534,27.1757355 20.59534,29.8312963 C20.59534,32.4895206 19.5590009,34.689614 17.1975939,34.689614 M23.0817033,24.808371 C21.5902044,22.5661935 18.7342897,21.8779318 17.2800118,22.1943617 C15.7465063,22.5267729 14.9600796,22.7318664 14.048165,22.7318664 C12.8613466,22.7318664 11.8904101,22.2444364 11.0226289,22.8570533 C10.3186201,23.3551374 10.1941956,24.0199598 10.1941956,24.9340907 L10.1941956,40.584586 C10.1941956,43.0750065 14.0896398,42.9103991 14.0896398,40.6676888 L14.0896398,38.4244458 C14.0896398,37.4708944 14.9600796,36.8897075 15.8299877,37.2636701 C16.8232569,37.6893056 18.6481497,37.9268944 20.5538652,37.2636701 C22.4601125,36.5988477 23.7862438,34.4403056 24.2004604,32.3643336 C24.614677,30.2872963 24.5737339,27.0500159 23.0817033,24.808371" id="Fill-14" fill="#FFFFFF"></path>
                <path d="M33.4407348,33.6101299 C32.0327173,34.7730364 30.7475291,34.5583542 30.0020455,33.6511486 C29.4219295,32.9453075 29.4336276,31.6550832 31.1213344,30.8277841 C32.9861068,29.9147187 33.8140083,30.2876159 34.1867501,30.745214 C34.5594919,31.2017467 34.8498158,32.4472234 33.4407348,33.6101299 M34.8083409,22.4003075 C31.1213344,21.6955318 28.7173891,22.6906346 27.8054744,23.3128402 C26.8935597,23.9361112 25.5216998,25.7819523 27.2253584,26.4281299 C28.7588639,27.0093168 30.2503628,26.0957187 31.0798595,25.3893449 C31.9082928,24.6840364 33.2344241,24.4762794 33.9384328,25.3477935 C34.6424416,26.2198402 34.8498158,27.133971 33.4832731,27.9207841 C32.115667,28.7118589 29.877621,28.2127093 27.5571571,29.6243916 C25.2366932,31.0360738 24.4492031,34.3149056 26.6042993,36.4755785 C28.7588639,38.6325224 31.9497676,37.5532514 33.0265182,37.0567654 C34.1043322,36.5576159 34.7253912,36.8069243 35.5128814,37.0977841 C36.3003716,37.3870458 38.7037851,37.8030925 38.7037851,35.976429 L38.7037851,27.2996439 C38.7037851,25.7217561 38.4969427,23.1056159 34.8083409,22.4003075" id="Fill-16" fill="#FFFFFF"></path>
                <path d="M80.2261044,33.6101299 C78.8170234,34.7730364 77.532367,34.5583542 76.7858199,33.6511486 C76.2062357,32.9453075 76.2184654,31.6550832 77.9056405,30.8277841 C79.7704129,29.9147187 80.5993779,30.2876159 80.9705245,30.745214 C81.3443298,31.2017467 81.6341219,32.4472234 80.2261044,33.6101299 M81.592647,22.4003075 C77.9056405,21.6955318 75.5027586,22.6906346 74.5897805,23.3128402 C73.6789293,23.9361112 72.3054742,25.7819523 74.010728,26.4281299 C75.54317,27.0093168 77.0352007,26.0957187 77.8636339,25.3893449 C78.6931306,24.6840364 80.0187302,24.4762794 80.7232707,25.3477935 C81.4267477,26.2198402 81.6341219,27.133971 80.2681109,27.9207841 C78.8999731,28.7118589 76.6619271,28.2127093 74.3414632,29.6243916 C72.0215311,31.0360738 71.2340409,34.3149056 73.3891372,36.4755785 C75.54317,38.6325224 78.7340737,37.5532514 79.8118877,37.0567654 C80.88917,36.5576159 81.5107608,36.8069243 82.2977193,37.0977841 C83.0846777,37.3870458 85.4880912,37.8030925 85.4880912,35.976429 L85.4880912,27.2996439 C85.4880912,25.7217561 85.2812488,23.1056159 81.592647,22.4003075" id="Fill-18" fill="#FFFFFF"></path>
                <path d="M42.6405978,22.068429 C41.1485672,22.068429 40.3621405,22.9814944 40.3621405,24.5178308 L40.3621405,35.3542234 C40.3621405,36.7659056 41.5239676,37.3817187 42.350274,37.4291299 C42.8336153,37.4578963 42.9718648,37.4578963 43.2616569,37.4291299 C43.839646,37.373728 45.0440114,36.9310458 45.0440114,35.6029991 L45.0440114,28.4199336 C45.0440114,27.0918869 46.6189917,26.6763729 47.4484884,26.4686159 C48.2769217,26.2613916 49.3132608,25.3477935 49.2303112,24.0197467 C49.146298,22.6906346 48.193972,22.1941486 47.365007,22.3592888 C46.536042,22.5265598 45.8735081,22.8568402 45.1269611,22.5665131 C44.3809457,22.2756533 43.7178801,22.068429 42.6405978,22.068429" id="Fill-20" fill="#FFFFFF"></path>
                <path d="M55.5703247,29.7479804 C55.5703247,31.261943 54.3452219,32.4893075 52.8345807,32.4893075 C51.3244713,32.4893075 50.0993685,31.261943 50.0993685,29.7479804 C50.0993685,28.2356159 51.3244713,27.0093168 52.8345807,27.0093168 C54.3452219,27.0093168 55.5703247,28.2356159 55.5703247,29.7479804" id="Fill-22" fill="#FFFFFF"></path>
                <path d="M59.9622972,17.5851393 C58.2639558,17.5851393 58.0151068,19.1630271 58.0151068,19.951971 L58.0151068,35.5614477 C58.0151068,36.9310458 59.3401746,37.4706813 60.1276648,37.4706813 C60.9151549,37.4706813 62.0344438,36.9310458 62.0344438,35.768672 L62.0344438,34.6057654 C62.0344438,33.9420084 62.3242359,32.6549804 63.3191002,32.405672 C64.3139646,32.1568963 64.769656,32.6128963 65.5560827,33.8594383 C66.3435729,35.1043822 67.0481133,36.5576159 68.291295,37.0977841 C69.5344766,37.6379523 70.4049164,37.3476252 70.9020827,37.2219056 C71.3997807,37.0977841 71.7725225,36.5986346 71.3583059,35.8102234 C70.9440893,35.0218121 67.9594963,30.0803916 67.5867545,29.2498963 C67.2140127,28.4199336 67.2969624,27.6730738 68.2498201,26.6763729 C69.2032096,25.6802047 70.3639733,24.434728 70.5708158,23.9781953 C70.7781899,23.5211299 70.4049164,22.939943 69.7003759,22.8152888 C69.0474131,22.6996907 69.12026,22.7316533 68.6645685,22.7316533 C68.2083453,22.7316533 67.0481133,22.8152888 66.1771418,23.770971 C65.3072337,24.7255879 64.3139646,25.7217561 63.8577414,26.1372701 C63.4020499,26.5522514 62.0759186,26.4281299 62.0759186,25.1411019 L62.0759186,19.4118028 C62.0759186,18.4987374 61.4543278,17.5851393 59.9622972,17.5851393" id="Fill-24" fill="#FFFFFF"></path>
                <path d="M5.38710263,39.1312991 C4.26834551,38.8415047 3.68822954,38.3434206 3.68822954,37.3472523 L3.68822954,30.2046729 L3.68822954,28.2538879 L3.68822954,21.1134393 C3.68822954,20.1178037 4.26834551,19.6197196 5.38710263,19.3288598 C6.50639147,19.0385327 7.08650744,18.5399159 7.08650744,17.958729 C7.08650744,17.3770093 6.42344179,16.962028 5.71890131,16.962028 L1.61608293,16.962028 C0.828592779,16.962028 0.0001595186,17.5852991 0.0001595186,19.0385327 L0.0001595186,28.2538879 L0.0001595186,30.2046729 L0.0001595186,39.4221589 C0.0001595186,40.8753925 0.828592779,41.4975981 1.61608293,41.4975981 L5.71890131,41.4975981 C6.42344179,41.4975981 7.08650744,41.0826168 7.08650744,40.5008972 C7.08650744,39.9191776 6.50639147,39.4221589 5.38710263,39.1312991" id="Fill-26" fill="#FFFFFF"></path>
                <path d="M89.8979829,39.1312991 C91.01674,38.8415047 91.5963243,38.3434206 91.5963243,37.3472523 L91.5963243,30.2046729 L91.5963243,28.2538879 L91.5963243,21.1134393 C91.5963243,20.1178037 91.01674,19.6197196 89.8979829,19.3288598 C88.7786941,19.0385327 88.1991098,18.5399159 88.1991098,17.958729 C88.1991098,17.3770093 88.8616438,16.962028 89.5661842,16.962028 L93.6684709,16.962028 C94.4559611,16.962028 95.2843943,17.5852991 95.2843943,19.0385327 L95.2843943,28.2538879 L95.2843943,30.2046729 L95.2843943,39.4221589 C95.2843943,40.8753925 94.4559611,41.4975981 93.6684709,41.4975981 L89.5661842,41.4975981 C88.8616438,41.4975981 88.1991098,41.0826168 88.1991098,40.5008972 C88.1991098,39.9191776 88.7786941,39.4221589 89.8979829,39.1312991" id="Fill-28" fill="#FFFFFF"></path>
            </g>
        </g>
    </g>
</svg>